# File created by Blade
# Date/Time:  Wed Jan 21 16:27:40 2015
# Frame Rate: 120.000 fps
#------------------------------------------------------
:FULLY-SPECIFIED
:DEGREES
781
root 17.705883 8.067292 -21.123112 -187.442082 32.766243 -205.309664
Spine 42.972051 -17.386227 -8.991852
Head 7.925955 -29.301287 11.805182
LeftShoulder 11.539266 -29.118806 3.104213
LeftArm 19.914695 43.613877 -64.810461
LeftForeArm -19.367777 -0.000000 45.900477
LeftHand -16.898624 -0.000000 17.195507
LeftHandThumb1 -26.253704 0.000000 33.147579
RightShoulder -6.442613 -13.744553 14.280760
RightArm 20.406594 -8.263913 64.480364
RightForeArm -39.256700 -0.000000 44.589922
RightHand -0.366706 -0.000000 -29.712618
RightHandThumb1 -24.326973 -0.000000 -32.862282
LeftUpLeg 20.232506 -9.811808 32.644804
LeftLeg 39.365301 -0.000000 -0.000000
LeftFoot 5.639100 53.428012 2.089400
LeftToeBase 21.029031 -0.000000 -0.000000
RightUpLeg -99.484641 -39.544253 1.075906
RightLeg -2.461909 -0.000000 0.000000
RightFoot 36.836229 -33.958917 -17.548494
RightToeBase 9.028111 -0.000000 -0.000000
782
root 17.702772 8.043095 -21.118790 -187.480539 32.782221 -205.424328
Spine 42.917011 -17.319670 -9.098144
Head 8.104780 -29.228994 11.630192
LeftShoulder 11.371445 -28.651704 2.993598
LeftArm 20.428173 43.657279 -64.169880
LeftForeArm -19.149310 -0.000000 46.452098
LeftHand -17.007130 0.000000 17.501235
LeftHandThumb1 -26.253704 0.000000 33.147579
RightShoulder -6.533666 -13.798424 14.267954
RightArm 20.376229 -8.163649 64.700746
RightForeArm -39.403220 -0.000000 44.523865
RightHand -0.448541 -0.000000 -30.390162
RightHandThumb1 -24.326973 -0.000000 -32.862282
LeftUpLeg 20.189747 -9.722988 32.638988
LeftLeg 39.426444 -0.000000 -0.000000
LeftFoot 5.578427 53.342956 2.019894
LeftToeBase 20.968045 -0.000000 -0.000000
RightUpLeg -99.568986 -39.491933 1.028689
RightLeg -2.513092 -0.000000 0.000000
RightFoot 36.477327 -34.160289 -17.569113
RightToeBase 6.105535 -0.000000 -0.000000
783
root 17.702319 8.020347 -21.114306 -187.530202 32.817316 -205.517605
Spine 42.925151 -17.263909 -9.267218
Head 8.242970 -29.132046 11.599449
LeftShoulder 11.373283 -28.841130 2.952440
LeftArm 19.792833 43.689724 -64.519864
LeftForeArm -18.930344 -0.000000 46.956386
LeftHand -16.936859 0.000000 17.468867
LeftHandThumb1 -26.253704 0.000000 33.147579
RightShoulder -6.570502 -13.802784 14.297757
RightArm 20.282934 -8.043757 64.872248
RightForeArm -39.605403 -0.000000 44.569201
RightHand -0.184646 -0.000000 -30.338414
RightHandThumb1 -24.326973 -0.000000 -32.862282
LeftUpLeg 20.204541 -9.655134 32.634665
LeftLeg 39.438427 -0.000000 -0.000000
LeftFoot 5.544159 53.301938 1.972442
LeftToeBase 20.918257 -0.000000 -0.000000
RightUpLeg -99.617131 -39.419996 0.970478
RightLeg -2.554267 -0.000000 0.000000
RightFoot 35.730759 -34.717953 -17.321535
RightToeBase 4.003374 -0.000000 -0.000000
784
root 17.700095 7.999801 -21.109947 -187.599324 32.849021 -205.642583
Spine 42.943137 -17.224775 -9.473897
Head 8.353829 -29.050195 11.541487
LeftShoulder 11.125528 -28.532760 2.973393
LeftArm 20.147203 43.710315 -64.135859
LeftForeArm -18.946178 -0.000000 47.323391
LeftHand -17.079690 -0.000000 17.515509
LeftHandThumb1 -26.253704 0.000000 33.147579
RightShoulder -6.580250 -13.752765 14.339186
RightArm 20.101130 -7.912301 65.045240
RightForeArm -39.842303 -0.000000 44.704767
RightHand 0.212856 0.000000 -29.876579
RightHandThumb1 -24.326973 -0.000000 -32.862282
LeftUpLeg 20.220720 -9.583961 32.594895
LeftLeg 39.443903 -0.000000 -0.000000
LeftFoot 5.530800 53.210835 1.956724
LeftToeBase 20.961002 -0.000000 -0.000000
RightUpLeg -99.812093 -39.327999 1.093483
RightLeg -2.615448 -0.000000 0.000000
RightFoot 35.056407 -35.280106 -16.844241
RightToeBase 1.117491 -0.000000 -0.000000
785
root 17.697093 7.981089 -21.100735 -187.629676 32.901662 -205.747037
Spine 42.938918 -17.192183 -9.676611
Head 8.470573 -28.899280 11.520436
LeftShoulder 10.913738 -28.316163 3.030587
LeftArm 20.335606 43.697460 -63.920311
LeftForeArm -18.972984 -0.000000 47.616293
LeftHand -17.137487 -0.000000 17.702636
LeftHandThumb1 -26.253704 0.000000 33.147579
RightShoulder -6.535037 -13.655793 14.352429
RightArm 19.872006 -7.805076 65.230722
RightForeArm -40.027308 -0.000000 44.800809
RightHand 0.294989 -0.000000 -29.829227
RightHandThumb1 -24.326973 -0.000000 -32.862282
LeftUpLeg 20.216751 -9.497581 32.572623
LeftLeg 39.455448 -0.000000 -0.000000
LeftFoot 5.485610 53.141886 1.904741
LeftToeBase 21.020303 -0.000000 -0.000000
RightUpLeg -99.979854 -39.219282 1.203970
RightLeg -2.707161 -0.000000 0.000000
RightFoot 34.347712 -35.809463 -16.441983
RightToeBase 0.053058 -0.000000 -0.000000
